<svg xmlns="http://www.w3.org/2000/svg" xmlns:xlink="http://www.w3.org/1999/xlink" width="1677.561" height="362.991" viewBox="0 0 1677.561 362.991">
  <defs>
    <filter id="Polygon_9" x="264.377" y="8" width="452.184" height="352.991" filterUnits="userSpaceOnUse">
      <feOffset dy="3" input="SourceAlpha"/>
      <feGaussianBlur stdDeviation="3" result="blur"/>
      <feFlood flood-opacity="0.161"/>
      <feComposite operator="in" in2="blur"/>
      <feComposite in="SourceGraphic"/>
    </filter>
    <filter id="Polygon_12" x="744.377" y="8" width="452.184" height="352.991" filterUnits="userSpaceOnUse">
      <feOffset dy="3" input="SourceAlpha"/>
      <feGaussianBlur stdDeviation="3" result="blur-2"/>
      <feFlood flood-opacity="0.161"/>
      <feComposite operator="in" in2="blur-2"/>
      <feComposite in="SourceGraphic"/>
    </filter>
    <filter id="Polygon_14" x="1225.377" y="10" width="452.184" height="352.991" filterUnits="userSpaceOnUse">
      <feOffset dy="3" input="SourceAlpha"/>
      <feGaussianBlur stdDeviation="3" result="blur-3"/>
      <feFlood flood-opacity="0.161"/>
      <feComposite operator="in" in2="blur-3"/>
      <feComposite in="SourceGraphic"/>
    </filter>
    <filter id="Polygon_11" x="495" y="2" width="463.183" height="360.991" filterUnits="userSpaceOnUse">
      <feOffset dy="3" input="SourceAlpha"/>
      <feGaussianBlur stdDeviation="3" result="blur-4"/>
      <feFlood flood-opacity="0.161"/>
      <feComposite operator="in" in2="blur-4"/>
      <feComposite in="SourceGraphic"/>
    </filter>
    <filter id="Polygon_15" x="0" y="0" width="463.184" height="360.991" filterUnits="userSpaceOnUse">
      <feOffset dy="3" input="SourceAlpha"/>
      <feGaussianBlur stdDeviation="3" result="blur-5"/>
      <feFlood flood-opacity="0.161"/>
      <feComposite operator="in" in2="blur-5"/>
      <feComposite in="SourceGraphic"/>
    </filter>
    <filter id="Polygon_13" x="973" y="2" width="463.183" height="360.991" filterUnits="userSpaceOnUse">
      <feOffset dy="3" input="SourceAlpha"/>
      <feGaussianBlur stdDeviation="3" result="blur-6"/>
      <feFlood flood-opacity="0.161"/>
      <feComposite operator="in" in2="blur-6"/>
      <feComposite in="SourceGraphic"/>
    </filter>
  </defs>
  <g id="Group_47" data-name="Group 47" transform="translate(144.184 -805.25)" opacity="0.73">
    <g transform="matrix(1, 0, 0, 1, -144.18, 805.25)" filter="url(#Polygon_9)">
      <path id="Polygon_9-2" data-name="Polygon 9" d="M217.092,0,434.184,334.991H0Z" transform="translate(707.56 348.99) rotate(180)" fill="#fff" opacity="0.559"/>
    </g>
    <g transform="matrix(1, 0, 0, 1, -144.18, 805.25)" filter="url(#Polygon_12)">
      <path id="Polygon_12-2" data-name="Polygon 12" d="M217.092,0,434.184,334.991H0Z" transform="translate(1187.56 348.99) rotate(180)" fill="#fff" opacity="0.559"/>
    </g>
    <g transform="matrix(1, 0, 0, 1, -144.18, 805.25)" filter="url(#Polygon_14)">
      <path id="Polygon_14-2" data-name="Polygon 14" d="M217.092,0,434.184,334.991H0Z" transform="translate(1668.56 350.99) rotate(180)" fill="#fff" opacity="0.559"/>
    </g>
    <g transform="matrix(1, 0, 0, 1, -144.18, 805.25)" filter="url(#Polygon_11)">
      <path id="Polygon_11-2" data-name="Polygon 11" d="M222.592,0,445.184,342.991H0Z" transform="translate(504 8)" fill="#fff" opacity="0.559"/>
    </g>
    <g transform="matrix(1, 0, 0, 1, -144.18, 805.25)" filter="url(#Polygon_15)">
      <path id="Polygon_15-2" data-name="Polygon 15" d="M222.592,0,445.184,342.991H0Z" transform="translate(9 6)" fill="#fff" opacity="0.559"/>
    </g>
    <g transform="matrix(1, 0, 0, 1, -144.18, 805.25)" filter="url(#Polygon_13)">
      <path id="Polygon_13-2" data-name="Polygon 13" d="M222.592,0,445.184,342.991H0Z" transform="translate(982 8)" fill="#fff" opacity="0.559"/>
    </g>
  </g>
</svg>
